<?xml version="1.0" encoding="utf-8"?>
<!-- Generator: Adobe Illustrator 21.0.0, SVG Export Plug-In . SVG Version: 6.00 Build 0)  -->
<svg version="1.0" id="Layer_1" xmlns="http://www.w3.org/2000/svg" xmlns:xlink="http://www.w3.org/1999/xlink" x="0px" y="0px"
	 viewBox="0 0 755 305" enable-background="new 0 0 755 305" xml:space="preserve">
<g>
	<path fill="#BCBEC0" d="M212.5,233.9l-66,37.3l-94.9-56l1-110.1l95.9-54.2l94.9,56l-0.7,75.8c2.5-0.5,5.1-0.8,7.7-0.8h0
		c2.6,0,5.2,0.3,7.7,0.8L259,98L148.7,33L37.2,96L36,224l110.3,65l73.7-41.6C216.6,243.4,214.1,238.8,212.5,233.9z"/>
</g>
<path fill="#939598" d="M140.6,136c0-3.2,2.6-5.8,5.8-5.8l0,0c3.2,0,5.8,2.6,5.8,5.8l0,0c0,3.2-2.6,5.8-5.8,5.8l0,0
	C143.2,141.8,140.6,139.2,140.6,136z M140.6,110.8c0-3.2,2.6-5.8,5.8-5.8l0,0c3.2,0,5.8,2.6,5.8,5.8l0,0c0,3.2-2.6,5.8-5.8,5.8l0,0
	C143.2,116.6,140.6,114,140.6,110.8z M140.6,85.7c0-3.2,2.6-5.8,5.8-5.8l0,0c3.2,0,5.8,2.6,5.8,5.8l0,0c0,3.2-2.6,5.8-5.8,5.8l0,0
	C143.2,91.5,140.6,88.9,140.6,85.7z"/>
<g>
	<path fill="#BCBEC0" d="M289.1,212.2c1.2,5,1.5,10.3,0.7,15.5h37.7l1.6-15.5H289.1z"/>
</g>
<path fill="#939598" d="M209.2,201.6c-2.8-1.6-3.8-5.1-2.2-7.9l0,0c1.6-2.8,5.1-3.8,7.9-2.2l0,0c2.8,1.6,3.8,5.1,2.2,7.9l0,0
	c-1.1,1.9-3,2.9-5.1,2.9l0,0C211.1,202.3,210.1,202.1,209.2,201.6z M187.3,189.2c-2.8-1.6-3.8-5.1-2.2-7.9l0,0
	c1.6-2.8,5.1-3.8,7.9-2.2l0,0c2.8,1.6,3.8,5.1,2.2,7.9l0,0c-1.1,1.9-3,2.9-5.1,2.9l0,0C189.2,189.9,188.2,189.7,187.3,189.2z
	 M165.4,176.8c-2.8-1.6-3.8-5.1-2.2-7.9l0,0c1.6-2.8,5.1-3.8,7.9-2.2l0,0c2.8,1.6,3.8,5.1,2.2,7.9l0,0c-1.1,1.9-3,2.9-5.1,2.9l0,0
	C167.3,177.6,166.3,177.3,165.4,176.8z M143.5,164.4c-2.8-1.6-3.8-5.1-2.2-7.9l0,0c1.6-2.8,5.1-3.8,7.9-2.2l0,0
	c2.8,1.6,3.8,5.1,2.2,7.9l0,0c-1.1,1.9-3,2.9-5.1,2.9l0,0C145.4,165.2,144.4,165,143.5,164.4z"/>
<path fill="#939598" d="M76.3,200.7c-1.6-2.8-0.7-6.3,2.1-7.9l0,0c2.8-1.6,6.3-0.7,7.9,2.1l0,0c1.6,2.8,0.7,6.3-2,7.9l0,0
	c-0.9,0.5-1.9,0.8-2.9,0.8l0,0C79.4,203.5,77.4,202.5,76.3,200.7z M98,187.9c-1.6-2.8-0.7-6.3,2-8l0,0c2.8-1.6,6.3-0.7,8,2.1l0,0
	c1.6,2.8,0.7,6.3-2.1,8l0,0c-0.9,0.5-1.9,0.8-2.9,0.8l0,0C101,190.8,99.1,189.7,98,187.9z M119.7,175.1c-1.6-2.8-0.7-6.3,2-7.9l0,0
	c2.8-1.6,6.3-0.7,8,2l0,0c1.6,2.8,0.7,6.3-2.1,8l0,0c-0.9,0.5-1.9,0.8-2.9,0.8l0,0C122.7,178,120.8,177,119.7,175.1z M141.4,162.3
	c-1.6-2.8-0.7-6.3,2-8l0,0c2.8-1.6,6.3-0.7,8,2.1l0,0c1.6,2.8,0.7,6.3-2,7.9l0,0c-0.9,0.6-1.9,0.8-2.9,0.8l0,0
	C144.4,165.2,142.4,164.2,141.4,162.3z"/>
<g>
	<path fill="#662D91" d="M349.4,194.6h9.2l9.2,23.3c1.1,2.8,2.4,6.9,2.4,6.9h0.1c0,0,1.3-4.1,2.3-6.9l9.2-23.3h9.2l3.8,47.2h-8.5
		l-2-26.4c-0.2-3.1-0.1-7.3-0.1-7.3h-0.1c0,0-1.4,4.6-2.5,7.3l-7.6,18.3h-7.5l-7.6-18.3c-1.1-2.7-2.6-7.4-2.6-7.4h-0.1
		c0,0,0.1,4.3-0.1,7.4l-2,26.4h-8.6L349.4,194.6z"/>
	<path fill="#662D91" d="M418.7,194.6h8.6v47.2h-8.6V194.6z"/>
	<path fill="#662D91" d="M452.5,194.6h16.1c14.6,0,24.1,8.6,24.1,23.5s-9.5,23.7-24.1,23.7h-16.1V194.6z M468.1,234.4
		c9.6,0,15.7-5.6,15.7-16.3c0-10.5-6.2-16.1-15.7-16.1h-7v32.4H468.1z"/>
	<path fill="#662D91" d="M552.8,227.2c0.7,2.7,0.8,5,0.9,5h0.1c0,0,0.2-2.3,0.8-5l7.8-32.6h8.8L559,241.8h-9.9l-7.2-27.9
		c-0.8-3.1-1.2-6.2-1.2-6.2h-0.1c0,0-0.4,3.1-1.2,6.2l-7.2,27.9h-9.9l-11.8-47.2h8.8l7.4,32.6c0.6,2.7,0.8,5,0.8,5h0.1
		c0.1,0,0.1-2.3,0.9-5l8.5-32.6h7.4L552.8,227.2z"/>
	<path fill="#662D91" d="M592.1,194.6h28.2v7.4h-19.7v12.4h15.9v7.4h-15.9v12.7h20.7v7.4h-29.3V194.6z"/>
	<path fill="#662D91" d="M644.7,229.7c0,0,5.1,5,11.8,5c3.6,0,6.8-1.9,6.8-5.7c0-8.4-22.3-7-22.3-21.5c0-7.8,6.8-13.7,15.8-13.7
		c9.3,0,14.1,5,14.1,5l-3.7,7c0,0-4.5-4.1-10.4-4.1c-4,0-7.1,2.3-7.1,5.6c0,8.4,22.2,6.3,22.2,21.4c0,7.5-5.7,13.8-15.5,13.8
		c-10.5,0-16.3-6.4-16.3-6.4L644.7,229.7z"/>
	<path fill="#662D91" d="M703.4,202H688v-7.4h39.5v7.4H712v39.8h-8.6V202z"/>
</g>
<g>
	
		<ellipse transform="matrix(0.508 -0.8613 0.8613 0.508 36.9948 148.3178)" fill="#DA1C5C" cx="148.3" cy="41.8" rx="24.4" ry="24.4"/>
</g>
<g>
	
		<ellipse transform="matrix(0.508 -0.8613 0.8613 0.508 -167.9425 145.9407)" fill="#662D91" cx="43.8" cy="220" rx="24.4" ry="24.4"/>
</g>
<g>
	
		<ellipse transform="matrix(0.508 -0.8613 0.8613 0.508 -67.7777 324.8013)" fill="#00AEEF" cx="250.4" cy="221.7" rx="24.4" ry="24.4"/>
</g>
<g>
	<path fill="#808285" d="M331.1,71.1c-3.2,0-5.9-2.3-5.9-5.3v-16c0-3,2.7-5.5,5.9-5.5h68.5c3.2,0,5.9,2.5,5.9,5.5v16
		c0,3-2.7,5.3-5.9,5.3h-13.9c-3.2,0-5.9,2.5-5.9,5.5v85.4c0,3-2.7,5.5-5.9,5.5h-17.3c-3.2,0-5.9-2.5-5.9-5.5V76.7
		c0-3-2.5-5.5-5.9-5.5H331.1z"/>
	<path fill="#808285" d="M438,167.6c-3.2,0-5.9-2.5-5.9-5.5V49.8c0-3,2.7-5.5,5.9-5.5h60.5c3.2,0,5.9,2.5,5.9,5.5v16
		c0,3-2.7,5.3-5.9,5.3h-31.7c-3.2,0-5.9,2.5-5.9,5.5v10.9c0,3,2.7,5.5,5.9,5.5h18.9c3.2,0,5.9,2.5,5.9,5.5v15.8c0,3-2.7,5.5-5.9,5.5
		h-18.9c-3.2,0-5.9,2.5-5.9,5.5v9.8c0,3,2.7,5.5,5.9,5.5h34c3.2,0,5.9,2.5,5.9,5.5v15.8c0,3-2.7,5.5-5.9,5.5H438z"/>
	<path fill="#808285" d="M588.6,76.7c0-3-2.7-5.5-6.1-5.5h-12.6c-3.2,0-5.9,2.5-5.9,5.5v58.5c0,3,2.7,5.5,5.9,5.5h12.6
		c3.4,0,6.1-2.5,6.1-5.5v-5c0-3,3.1-5.5,5.9-7c3.1-1.7,13.6-6.9,17.1-8.8c4.2-2.2,5.9,1.4,5.9,5.5v30c0,9.6-8.7,17.6-19.2,17.6
		h-43.8c-10.1,0-19.2-8-19.2-17.6V62.3c0-9.6,9.1-18,19.2-18h43.8c10.9,0,19.2,8.4,19.2,18c0,0,0,12.9,0,15.7
		c0,8.5-5.9,10.5-5.9,10.5s-15.1,8.2-17.1,9c-3.3,1.2-5.9-1.4-5.9-5.5V76.7z"/>
	<path fill="#808285" d="M721.9,44.3c3.2,0,5.9,2.5,5.9,7.9c0,0,0,107.6,0,109.9s-2.7,5.4-5.9,5.4h-17.3c-3.2,0-5.9-2.5-5.9-5.5
		v-48.3c-0.5-2-2.5-2.5-4.8-1.2l-14.2,7.3c-2.3,1.2-4.4,4.1-5,6.8v35.5c0,3-2.5,5.5-5.9,5.5h-17.1c-3.2,0-5.9-2.5-5.9-5.5V49.8
		c0-3,2.7-5.5,5.9-5.5h17.1c3.4,0,5.9,2.5,5.9,5.5v39.1c0.5,2.1,2.7,2.8,5,1.6l14.2-7.3c2.3-1.2,4.3-3.9,4.8-6.6V49.8
		c0-3,2.7-5.5,5.9-5.5H721.9z"/>
</g>
<g>
	<path fill="#BCBEC0" d="M345.5,263.2h4.7c1.6,0,2.3,0.1,2.9,0.4c1.5,0.7,2.4,2,2.4,4c0,1.7-0.9,3.4-2.5,4v0c0,0,0.2,0.2,0.5,0.7
		l3,5.4h-2.9l-2.9-5.4h-2.5v5.4h-2.6V263.2z M350.5,270c1.4,0,2.3-0.8,2.3-2.3c0-1.4-0.6-2.2-2.7-2.2h-2v4.5H350.5z"/>
	<path fill="#BCBEC0" d="M363,263.2h2.6v14.5H363V263.2z"/>
	<path fill="#BCBEC0" d="M371.6,263.2h2.8l3.2,9.5c0.3,0.8,0.5,2.1,0.6,2.1h0c0,0,0.3-1.3,0.6-2.1l3.2-9.5h2.8l-5.3,14.5h-2.6
		L371.6,263.2z"/>
	<path fill="#BCBEC0" d="M390.7,263.2h8.7v2.3h-6.1v3.8h4.9v2.3h-4.9v3.9h6.4v2.3h-9V263.2z"/>
	<path fill="#BCBEC0" d="M406.5,263.2h4.7c1.6,0,2.3,0.1,2.9,0.4c1.5,0.7,2.4,2,2.4,4c0,1.7-0.9,3.4-2.5,4v0c0,0,0.2,0.2,0.5,0.7
		l3,5.4h-2.9l-2.9-5.4h-2.5v5.4h-2.6V263.2z M411.5,270c1.4,0,2.3-0.8,2.3-2.3c0-1.4-0.6-2.2-2.7-2.2h-2v4.5H411.5z"/>
	<path fill="#BCBEC0" d="M424.1,263.2h8.3v2.3h-5.7v4.1h4.8v2.3h-4.8v5.9h-2.6V263.2z"/>
	<path fill="#BCBEC0" d="M439,263.2h8.7v2.3h-6.1v3.8h4.9v2.3h-4.9v3.9h6.4v2.3h-9V263.2z"/>
	<path fill="#BCBEC0" d="M455.1,274c0,0,1.6,1.5,3.6,1.5c1.1,0,2.1-0.6,2.1-1.8c0-2.6-6.8-2.1-6.8-6.6c0-2.4,2.1-4.2,4.9-4.2
		c2.9,0,4.3,1.6,4.3,1.6l-1.1,2.1c0,0-1.4-1.3-3.2-1.3c-1.2,0-2.2,0.7-2.2,1.7c0,2.6,6.8,1.9,6.8,6.6c0,2.3-1.8,4.3-4.8,4.3
		c-3.2,0-5-2-5-2L455.1,274z"/>
	<path fill="#BCBEC0" d="M473.2,265.5h-4.8v-2.3h12.2v2.3h-4.8v12.2h-2.6V265.5z"/>
	<path fill="#BCBEC0" d="M495.4,270.7h6.2v2.3h-6.2V270.7z"/>
	<path fill="#BCBEC0" d="M516.8,272.6h2.6v0.7c0,1.7,0.9,2.3,1.9,2.3s1.9-0.6,1.9-2.2v-7.9h-3.7v-2.3h6.4v10.2
		c0,3.2-2.3,4.5-4.5,4.5c-2.2,0-4.5-1.4-4.5-4.5V272.6z"/>
	<path fill="#BCBEC0" d="M532.9,267.3h2.6v6.2c0,1.3,0.3,2.1,1.6,2.1c1.9,0,2.9-1.7,2.9-3.5v-4.8h2.6v10.4h-2.5v-1.2
		c0-0.4,0-0.7,0-0.7h0c-0.5,1.1-1.8,2.2-3.6,2.2c-2.2,0-3.6-1.1-3.6-4V267.3z"/>
	<path fill="#BCBEC0" d="M549.5,267.3h2.5v1.2c0,0.4,0,0.7,0,0.7h0c0.4-0.9,1.6-2.2,3.7-2.2c2.3,0,3.6,1.2,3.6,4v6.7h-2.6v-6.2
		c0-1.3-0.3-2.1-1.7-2.1c-1.4,0-2.4,0.9-2.8,2.1c-0.1,0.4-0.2,0.9-0.2,1.4v4.8h-2.6V267.3z"/>
	<path fill="#BCBEC0" d="M570.7,267c3,0,4.6,2.2,4.6,4.9c0,0.3-0.1,1-0.1,1h-7.2c0.2,1.8,1.6,2.8,3.1,2.8c1.7,0,3-1.1,3-1.1l1,1.9
		c0,0-1.6,1.5-4.2,1.5c-3.5,0-5.6-2.5-5.6-5.5C565.4,269.3,567.6,267,570.7,267z M572.7,271.2c0-1.4-0.9-2.2-2.1-2.2
		c-1.3,0-2.2,0.8-2.5,2.2H572.7z"/>
	<path fill="#BCBEC0" d="M591.3,274c0,0,1.4,1.5,3.3,1.5c1.5,0,2.6-0.9,2.6-2.2c0-1.5-1.4-2.2-3.1-2.2h-1l-0.6-1.3l2.7-3.1
		c0.6-0.7,1-1.1,1-1.1v0c0,0-0.4,0.1-1.3,0.1h-4.3v-2.3h8.9v1.7l-3.6,4.1c2,0.3,4,1.7,4,4.2c0,2.5-1.9,4.8-5.1,4.8
		c-3.1,0-4.8-1.9-4.8-1.9L591.3,274z"/>
	<path fill="#BCBEC0" d="M606.6,270.7h6.2v2.3h-6.2V270.7z"/>
	<path fill="#BCBEC0" d="M619,272.3l6.3-9.2h3.1v8.6h1.9v2.2h-1.9v3.7h-2.6V274H619V272.3z M625.8,271.8v-4.5c0-0.7,0.1-1.5,0.1-1.5
		h0c0,0-0.3,0.8-0.7,1.3l-3.4,4.6v0H625.8z"/>
	<path fill="#BCBEC0" d="M636.7,275.1h2.6l-2,4.8h-2L636.7,275.1z"/>
	<path fill="#BCBEC0" d="M654.5,276.4c0-5.2,6.8-6.1,6.8-9c0-1.3-1-2-2.2-2c-1.7,0-2.6,1.7-2.6,1.7l-2-1.3c0,0,1.3-2.9,4.8-2.9
		c2.6,0,4.7,1.6,4.7,4.3c0,4.7-6.5,5.5-6.6,8.2h6.8v2.3h-9.6C654.6,277.2,654.5,276.8,654.5,276.4z"/>
	<path fill="#BCBEC0" d="M670.6,270.4c0-4.2,1.3-7.5,5.3-7.5c4,0,5.3,3.3,5.3,7.5c0,4.2-1.3,7.5-5.3,7.5
		C671.9,277.9,670.6,274.6,670.6,270.4z M678.4,270.4c0-2.8-0.6-5-2.6-5c-2,0-2.6,2.2-2.6,5c0,2.9,0.6,5.1,2.6,5.1
		C677.8,275.5,678.4,273.3,678.4,270.4z"/>
	<path fill="#BCBEC0" d="M687.5,275.4h3.1v-8.1c0-0.5,0-1,0-1h0c0,0-0.2,0.3-0.6,0.8l-1.2,1.1l-1.6-1.6l3.6-3.5h2.3v12.2h3.1v2.3
		h-8.9V275.4z"/>
	<path fill="#BCBEC0" d="M708,266.8c0.5-0.9,0.9-1.3,0.9-1.3v0c0,0-0.3,0-1,0h-6.2v-2.3h10v1.8l-6.4,12.7h-2.7L708,266.8z"/>
</g>
</svg>
